<?xml version="1.0" encoding="UTF-8" standalone="no"?>
<!DOCTYPE svg PUBLIC "-//W3C//DTD SVG 1.1//EN" "http://www.w3.org/Graphics/SVG/1.1/DTD/svg11.dtd">
<svg xmlns="http://www.w3.org/2000/svg" version="1.1" viewBox="0.00 0.00 1024.00 1024.00">
<g stroke-width="2.00" fill="none" stroke-linecap="butt">
<path stroke="#4d6580" vector-effect="non-scaling-stroke" d="
  M 1024.00 902.23
  L 980.21 902.28"
/>
<path stroke="#505a7f" vector-effect="non-scaling-stroke" d="
  M 980.21 902.28
  Q 964.13 901.91 952.33 902.62
  Q 945.32 903.03 937.68 906.01"
/>
<path stroke="#5e5082" vector-effect="non-scaling-stroke" d="
  M 937.68 906.01
  Q 916.11 914.84 905.41 935.76
  C 900.30 945.77 899.29 955.66 899.27 966.75
  Q 899.21 995.38 899.37 1024.00"
/>
<path stroke="#49706c" vector-effect="non-scaling-stroke" d="
  M 146.25 175.52
  C 154.14 175.50 163.27 176.25 167.52 168.37
  Q 169.09 165.44 169.22 159.11
  Q 169.35 152.67 169.31 146.42
  Q 169.08 112.99 169.26 81.16
  Q 169.30 74.10 168.42 70.25
  C 167.43 65.88 162.91 62.14 158.19 61.36
  Q 155.64 60.94 153.01 60.96
  Q 111.77 61.37 68.16 60.99
  Q 60.23 60.92 57.27 67.19
  C 56.09 69.71 56.05 72.90 56.04 75.75
  C 55.98 102.76 55.50 132.90 56.13 162.75
  C 56.32 171.60 62.21 175.49 70.25 175.61
  C 96.17 176.00 121.84 175.57 146.25 175.52"
/>
<path stroke="#505a7f" vector-effect="non-scaling-stroke" d="
  M 499.73 266.97
  L 450.34 292.72
  A 1.51 1.51 0.0 0 1 448.54 292.41
  Q 441.59 284.93 432.28 288.24
  C 424.92 290.87 421.69 298.17 423.63 305.76"
/>
<path stroke="#4b6c71" vector-effect="non-scaling-stroke" d="
  M 423.63 305.76
  Q 407.63 314.14 391.67 322.10
  C 384.04 325.91 375.93 326.44 374.00 336.65
  C 372.58 344.15 377.04 350.90 383.70 353.84
  A 0.97 0.96 12.4 0 1 384.27 354.72
  L 384.33 380.79"
/>
<path stroke="#497764" vector-effect="non-scaling-stroke" d="
  M 384.33 380.79
  L 384.28 408.92
  A 1.22 1.22 0.0 0 1 383.56 410.02
  C 370.23 415.85 371.62 431.14 382.71 438.05
  A 1.19 1.17 16.3 0 1 383.27 439.05
  L 383.36 482.98
  A 1.69 1.69 0.0 0 0 384.25 484.47
  L 418.71 503.00
  Q 419.70 503.53 419.72 504.65
  C 419.78 507.30 419.46 510.01 420.30 512.58
  C 421.72 516.91 424.72 520.44 429.27 521.57
  Q 435.90 523.22 441.80 518.51
  Q 443.55 517.12 445.35 515.38"
/>
<path stroke="#624768" vector-effect="non-scaling-stroke" d="
  M 445.35 515.38
  Q 466.26 526.05 486.84 537.43
  Q 491.68 540.10 497.72 542.73
  Q 498.23 542.95 498.24 543.50
  C 498.42 553.07 508.37 560.01 517.48 556.63
  Q 525.21 553.77 526.41 545.07
  A 2.16 2.16 0.0 0 1 527.52 543.47
  Q 554.71 528.72 582.57 515.19"
/>
<path stroke="#49706c" vector-effect="non-scaling-stroke" d="
  M 582.57 515.19
  Q 588.13 522.27 595.89 521.99
  C 604.48 521.67 611.74 512.27 607.83 504.00
  A 0.72 0.72 0.0 0 1 608.12 503.07
  Q 619.47 496.44 632.00 489.98
  Q 634.85 488.51 637.60 486.86
  C 641.75 484.37 641.14 481.74 641.15 477.72
  Q 641.23 450.69 641.22 423.75"
/>
<path stroke="#4d6580" vector-effect="non-scaling-stroke" d="
  M 641.22 423.75
  Q 640.93 421.80 642.05 421.32
  Q 645.95 419.67 648.55 416.98
  C 652.78 412.62 653.40 405.58 650.23 400.51
  Q 647.33 395.90 641.05 393.81"
/>
<path stroke="#5e5082" vector-effect="non-scaling-stroke" d="
  M 641.05 393.81
  L 641.02 348.39
  A 1.07 1.07 0.0 0 1 641.71 347.39
  Q 650.00 344.26 650.57 335.70
  C 651.06 328.22 645.97 322.98 638.95 321.52
  Q 635.17 320.74 631.68 318.96
  C 622.76 314.41 614.26 309.05 605.00 305.19
  Q 604.42 304.95 604.49 304.34
  Q 604.61 303.25 604.89 302.21
  C 606.10 297.76 603.57 292.47 600.35 289.73
  C 594.04 284.34 584.63 285.94 578.91 291.83
  A 0.77 0.77 0.0 0 1 578.00 291.97
  L 528.83 266.48
  A 0.98 0.97 17.9 0 1 528.32 265.49
  C 529.40 257.33 524.34 250.58 516.21 249.39
  C 509.69 248.43 502.54 252.38 500.78 258.77
  C 500.05 261.45 500.07 264.15 499.73 266.97"
/>
<path stroke="#8991cf" vector-effect="non-scaling-stroke" d="
  M 641.05 393.81
  L 635.59 393.81"
/>
<path stroke="#5e5082" vector-effect="non-scaling-stroke" d="
  M 635.59 393.81
  L 635.44 348.31
  Q 635.44 347.64 634.79 347.46
  Q 623.15 344.32 623.19 332.19
  Q 623.19 330.72 621.86 331.32
  L 611.22 336.13"
/>
<path stroke="#8c86ce" vector-effect="non-scaling-stroke" d="
  M 611.22 336.13
  Q 610.38 336.32 610.11 335.66
  Q 609.94 335.25 609.49 335.22
  Q 608.68 335.15 608.18 334.24
  Q 607.91 333.73 608.41 333.45
  Q 611.56 331.65 610.76 330.19"
/>
<path stroke="#5e5082" vector-effect="non-scaling-stroke" d="
  M 610.76 330.19
  L 624.86 323.60
  A 0.49 0.48 70.2 0 0 625.12 323.04
  Q 624.97 322.47 624.50 322.17
  Q 615.35 316.25 602.63 309.55
  A 0.63 0.62 30.8 0 0 601.83 309.75
  C 595.68 318.57 583.56 315.85 578.51 307.82
  A 1.43 1.42 60.2 0 0 576.65 307.31
  L 527.01 333.20"
/>
<path stroke="#8c86ce" vector-effect="non-scaling-stroke" d="
  M 527.01 333.20
  Q 526.75 331.80 525.82 330.73
  Q 525.50 330.36 525.44 329.87
  L 525.18 327.88"
/>
<path stroke="#5e5082" vector-effect="non-scaling-stroke" d="
  M 525.18 327.88
  L 576.22 300.80
  A 2.01 2.01 0.0 0 0 576.19 297.24
  L 526.56 271.68
  Q 525.77 271.27 525.13 271.89
  Q 514.31 282.27 502.25 271.46"
/>
<path stroke="#8c86ce" vector-effect="non-scaling-stroke" d="
  M 502.25 271.46
  L 499.73 266.97"
/>
<path stroke="#505a7f" vector-effect="non-scaling-stroke" d="
  M 502.25 271.46
  Q 476.98 285.57 450.92 298.46
  Q 449.24 299.29 450.20 300.90
  C 451.49 303.06 455.51 304.87 457.65 305.99
  Q 481.99 318.74 500.94 328.73
  A 0.41 0.41 0.0 0 0 501.48 328.58
  C 506.50 320.36 517.66 321.49 523.74 327.73
  Q 524.06 328.05 524.50 328.07
  Q 524.96 328.09 525.18 327.88"
/>
<path stroke="#505a7f" vector-effect="non-scaling-stroke" d="
  M 527.01 333.20
  Q 527.17 337.10 526.97 341.49
  Q 526.85 344.25 525.15 346.40
  Q 521.29 351.27 514.78 352.46"
/>
<path stroke="#79a2bc" vector-effect="non-scaling-stroke" d="
  M 514.78 352.46
  Q 512.55 353.40 509.28 352.05"
/>
<path stroke="#505a7f" vector-effect="non-scaling-stroke" d="
  M 509.28 352.05
  Q 504.21 349.30 502.01 347.23
  C 499.05 344.44 498.33 339.55 499.21 335.15
  A 1.51 1.50 19.7 0 0 498.43 333.51
  L 475.47 321.39
  A 0.48 0.48 0.0 0 0 474.77 321.83
  L 475.12 332.03"
/>
<path stroke="#79a2bc" vector-effect="non-scaling-stroke" d="
  M 475.12 332.03
  L 474.62 331.71
  Q 474.20 331.43 473.71 331.50
  Q 470.54 331.93 469.52 333.82"
/>
<path stroke="#505a7f" vector-effect="non-scaling-stroke" d="
  M 469.52 333.82
  L 469.74 319.87
  A 1.86 1.84 -75.6 0 0 468.76 318.20
  L 450.61 308.55
  A 1.17 1.17 0.0 0 0 449.07 308.97
  C 445.40 314.91 438.53 317.57 431.95 314.55
  Q 428.51 312.97 425.74 310.07"
/>
<path stroke="#79a2bc" vector-effect="non-scaling-stroke" d="
  M 425.74 310.07
  Q 424.35 309.80 424.14 308.25
  Q 423.86 306.29 423.63 305.76"
/>
<path stroke="#74b1b9" vector-effect="non-scaling-stroke" d="
  M 641.22 423.75
  L 638.80 424.40
  Q 638.36 424.52 637.99 424.25
  Q 637.23 423.70 635.82 423.78"
/>
<path stroke="#505a7f" vector-effect="non-scaling-stroke" d="
  M 610.76 330.19
  Q 593.92 338.36 577.22 346.25
  Q 570.60 349.38 563.89 351.62
  A 0.63 0.63 0.0 0 1 563.15 351.34
  Q 559.50 345.25 552.95 343.15
  C 543.56 340.14 535.45 346.36 535.89 356.19
  C 536.14 361.64 541.82 366.26 546.66 368.45"
/>
<path stroke="#4b6c71" vector-effect="non-scaling-stroke" d="
  M 546.66 368.45
  L 546.71 396.20
  Q 546.71 396.88 546.08 397.15
  C 537.71 400.84 531.37 408.87 537.23 418.10
  Q 540.50 423.24 546.18 424.96
  A 0.73 0.73 0.0 0 1 546.71 425.66
  L 546.79 495.29"
/>
<path stroke="#624768" vector-effect="non-scaling-stroke" d="
  M 546.79 495.29
  L 515.98 511.86
  A 0.49 0.49 0.0 0 1 515.26 511.42
  L 515.57 481.45
  Q 515.57 480.96 516.05 480.82
  C 524.49 478.45 528.86 472.95 527.89 463.93
  C 527.00 455.73 517.63 451.17 510.03 452.47
  C 505.39 453.25 500.14 455.57 498.46 460.05
  Q 494.49 470.61 502.74 477.49
  C 504.62 479.05 507.25 479.83 509.58 480.73
  A 0.57 0.56 10.9 0 1 509.95 481.27
  L 509.65 511.05
  A 0.43 0.43 0.0 0 1 508.99 511.41
  L 481.76 493.76
  Q 480.90 493.20 479.99 493.69
  L 476.65 495.50
  A 0.55 0.55 0.0 0 0 476.57 496.42
  Q 477.79 497.37 479.05 498.19
  Q 494.70 508.40 508.86 517.42
  A 1.90 1.89 16.3 0 1 509.74 519.02
  L 509.74 528.03
  A 1.60 1.58 80.9 0 1 508.66 529.54
  Q 502.26 531.69 499.37 537.07
  A 0.51 0.50 27.3 0 1 498.70 537.28
  L 447.36 510.40"
/>
<path stroke="#497764" vector-effect="non-scaling-stroke" d="
  M 447.36 510.40
  Q 449.19 496.25 435.42 493.45
  Q 431.28 492.60 427.86 494.19
  Q 425.55 495.26 423.38 496.94
  A 2.73 2.72 39.9 0 1 420.45 497.20
  L 389.73 481.14
  A 1.35 1.34 -76.0 0 1 389.01 479.93
  L 389.64 439.22
  A 1.44 1.44 0.0 0 1 390.73 437.85
  Q 395.18 436.73 398.11 433.90
  Q 398.56 433.47 399.09 433.80
  Q 430.04 452.94 460.42 470.62
  A 0.90 0.89 32.5 0 1 460.71 471.91
  C 456.43 478.14 455.64 485.44 461.20 491.25
  Q 466.45 496.72 475.28 494.88
  Q 482.45 493.39 485.90 487.10
  C 489.24 481.01 487.41 473.99 482.29 469.37
  C 477.56 465.09 472.51 465.00 466.91 467.02
  A 2.19 2.17 -39.9 0 1 465.07 466.86
  Q 433.16 448.35 401.93 429.09
  A 1.03 1.02 26.6 0 1 401.51 427.85
  Q 404.64 419.88 398.65 413.77
  C 396.35 411.42 393.32 410.54 390.09 409.67
  Q 389.51 409.51 389.51 408.91
  L 389.60 386.56"
/>
<path stroke="#4d6580" vector-effect="non-scaling-stroke" d="
  M 635.59 393.81
  L 630.35 395.90"
/>
<path stroke="#505a7f" vector-effect="non-scaling-stroke" d="
  M 611.22 336.13
  Q 590.70 346.28 570.01 356.06
  Q 567.39 357.30 565.48 357.81
  Q 563.51 358.34 565.29 359.34
  L 630.35 395.90"
/>
<path stroke="#7b9bcb" vector-effect="non-scaling-stroke" d="
  M 630.35 395.90
  Q 628.45 399.11 625.63 399.49"
/>
<path stroke="#505a7f" vector-effect="non-scaling-stroke" d="
  M 625.63 399.49
  Q 596.38 382.98 567.34 366.63
  Q 564.60 365.08 561.56 364.94
  Q 559.65 364.85 557.31 366.21
  Q 555.30 367.37 553.26 368.37"
/>
<path stroke="#79a2bc" vector-effect="non-scaling-stroke" d="
  M 553.26 368.37
  L 546.66 368.45"
/>
<path stroke="#4b6c71" vector-effect="non-scaling-stroke" d="
  M 425.74 310.07
  L 394.12 326.97
  A 0.33 0.33 0.0 0 0 394.14 327.57
  Q 405.35 332.59 402.16 344.19
  A 0.88 0.87 -67.1 0 0 402.56 345.18
  C 419.61 355.24 437.96 364.76 455.91 374.24
  A 0.50 0.50 0.0 0 0 456.61 373.97
  C 458.74 368.07 463.08 365.68 468.89 364.91
  Q 469.51 364.83 469.51 364.21
  L 469.52 333.82"
/>
<path stroke="#4b6c71" vector-effect="non-scaling-stroke" d="
  M 475.12 332.03
  L 475.64 363.87
  A 0.78 0.76 -81.5 0 0 476.16 364.59
  C 481.46 366.38 485.95 369.77 487.12 375.54
  C 488.75 383.57 483.83 390.51 476.07 392.72
  A 0.95 0.94 -8.5 0 0 475.38 393.64
  L 475.48 418.49
  A 1.86 1.85 -75.5 0 0 476.43 420.11
  L 508.93 438.57
  A 0.34 0.34 0.0 0 0 509.44 438.27
  L 509.28 352.05"
/>
<path stroke="#4b6c71" vector-effect="non-scaling-stroke" d="
  M 514.78 352.46
  L 514.46 450.28
  Q 514.46 450.83 513.92 450.93
  L 510.87 451.51
  Q 510.25 451.63 510.27 451.00
  C 510.31 449.20 510.73 445.52 508.94 444.53
  Q 480.70 428.96 455.11 414.00
  Q 454.52 413.66 454.34 414.31
  Q 452.99 419.07 449.38 422.26
  C 441.12 429.54 428.09 424.23 425.92 413.58
  Q 424.28 405.53 430.16 400.34
  C 437.18 394.16 447.06 395.71 452.85 402.41
  C 454.35 404.16 454.73 406.52 456.65 407.86
  Q 462.39 411.87 468.94 416.17
  A 0.49 0.48 -53.4 0 0 469.58 416.07
  Q 469.84 415.74 469.84 415.32
  Q 469.80 404.94 469.70 393.72
  A 0.90 0.89 11.3 0 0 469.14 392.89
  C 465.10 391.20 461.55 389.70 458.89 386.11
  C 457.72 384.54 457.23 382.69 456.29 381.03
  Q 456.01 380.54 455.51 380.29
  Q 426.62 365.85 399.45 350.07
  Q 398.85 349.72 398.34 350.20
  C 396.23 352.22 393.42 354.13 390.40 353.97
  Q 389.66 353.93 389.66 354.67
  L 389.60 386.56"
/>
<path stroke="#72bfa2" vector-effect="non-scaling-stroke" d="
  M 389.60 386.56
  Q 388.89 386.27 388.61 386.70
  Q 388.49 386.88 388.33 386.73
  Q 388.16 386.59 388.25 386.49
  Q 388.61 386.13 388.10 386.09
  Q 387.54 386.03 387.43 385.50
  Q 387.34 385.03 386.87 385.00
  Q 386.46 384.97 386.22 385.18
  Q 385.76 385.59 385.38 385.10
  Q 384.06 383.36 384.33 380.79"
/>
<path stroke="#8893a1" vector-effect="non-scaling-stroke" d="
  M 582.57 515.19
  L 580.39 510.02"
/>
<path stroke="#4d6580" vector-effect="non-scaling-stroke" d="
  M 625.63 399.49
  C 619.87 409.05 624.82 419.80 635.25 422.27
  Q 635.95 422.44 635.82 423.78"
/>
<path stroke="#49706c" vector-effect="non-scaling-stroke" d="
  M 635.82 423.78
  L 635.75 480.01
  A 3.01 2.99 76.3 0 1 634.15 482.67
  L 606.47 497.20
  A 0.69 0.69 0.0 0 1 605.72 497.13
  L 600.32 493.03
  A 2.10 2.09 18.9 0 1 599.50 491.37
  L 599.52 452.23
  A 1.31 1.31 0.0 0 1 600.51 450.96
  C 614.11 447.42 613.82 427.93 600.80 424.27
  C 592.02 421.81 582.33 427.36 581.68 437.09
  Q 580.91 448.61 593.00 451.68
  A 0.85 0.85 0.0 0 1 593.65 452.52
  L 593.47 491.11
  Q 593.47 491.89 592.70 492.00
  C 582.17 493.63 578.92 500.01 580.39 510.02"
/>
<path stroke="#624768" vector-effect="non-scaling-stroke" d="
  M 580.39 510.02
  L 526.29 537.16
  Q 525.62 537.49 525.29 536.83
  Q 522.85 532.00 516.95 530.00
  A 2.48 2.48 0.0 0 1 515.26 527.65
  L 515.28 519.34
  A 1.56 1.54 -14.1 0 1 516.11 517.97
  L 550.45 499.64"
/>
<path stroke="#4b6c71" vector-effect="non-scaling-stroke" d="
  M 550.45 499.64
  Q 552.56 499.44 552.60 497.00
  Q 553.18 461.46 552.80 426.11
  A 0.92 0.91 82.0 0 1 553.46 425.23
  Q 557.72 424.03 561.00 420.62
  C 567.20 414.16 565.41 403.20 557.47 399.08
  Q 555.79 398.20 554.05 397.59
  A 1.37 1.36 10.2 0 1 553.14 396.29
  L 553.26 368.37"
/>
<path stroke="#8b8fa5" vector-effect="non-scaling-stroke" d="
  M 550.45 499.64
  L 546.79 495.29"
/>
<path stroke="#899a99" vector-effect="non-scaling-stroke" d="
  M 447.36 510.40
  L 445.35 515.38"
/>
<path stroke="#497764" vector-effect="non-scaling-stroke" d="
  M 820.6300 284.3167
  A 13.63 13.02 -3.8 0 0 806.1671 272.2286
  A 13.63 13.02 -3.8 0 0 793.4300 286.1233
  A 13.63 13.02 -3.8 0 0 807.8929 298.2114
  A 13.63 13.02 -3.8 0 0 820.6300 284.3167"
/>
<path stroke="#4d6580" vector-effect="non-scaling-stroke" d="
  M 230.59 342.72
  A 13.33 13.33 0.0 0 0 217.26 329.39
  A 13.33 13.33 0.0 0 0 203.93 342.72
  A 13.33 13.33 0.0 0 0 217.26 356.05
  A 13.33 13.33 0.0 0 0 230.59 342.72"
/>
<path stroke="#5e5082" vector-effect="non-scaling-stroke" d="
  M 59.8471 580.0029
  A 7.76 7.49 -45.0 0 0 49.0638 580.1938
  A 7.76 7.49 -45.0 0 0 48.8729 590.9771
  A 7.76 7.49 -45.0 0 0 59.6562 590.7862
  A 7.76 7.49 -45.0 0 0 59.8471 580.0029"
/>
<path stroke="#4b6c71" vector-effect="non-scaling-stroke" d="
  M 546.23 684.86
  L 546.29 693.96
  Q 546.29 694.51 545.94 694.94
  Q 544.96 696.14 543.48 696.67
  C 523.86 703.65 500.83 693.41 502.31 670.04
  C 503.18 656.27 512.93 646.22 526.39 644.55
  Q 540.57 642.79 552.17 653.11
  A 0.68 0.68 0.0 0 0 553.18 652.99
  L 562.15 640.31
  Q 563.10 638.95 561.72 638.05
  Q 541.32 624.71 517.08 629.48
  C 498.13 633.21 483.85 649.24 482.76 668.65
  Q 481.84 685.24 490.51 696.46
  C 507.06 717.85 538.61 720.50 560.38 705.27
  C 561.56 704.45 562.52 703.53 562.53 701.97
  Q 562.56 685.27 562.51 667.58
  A 0.47 0.47 0.0 0 0 562.04 667.11
  L 536.14 667.38
  A 0.94 0.94 0.0 0 0 535.21 668.33
  L 535.33 683.29
  A 0.71 0.71 0.0 0 0 536.04 683.99
  L 545.36 684.00
  Q 546.22 684.00 546.23 684.86"
/>
<path stroke="#505a7f" vector-effect="non-scaling-stroke" d="
  M 743.39 694.89
  A 1.28 1.28 0.0 0 1 744.59 695.68
  L 751.72 712.41
  A 1.56 1.55 78.0 0 0 753.16 713.35
  L 770.20 713.15
  Q 771.07 713.14 770.80 712.32
  Q 770.39 711.09 769.93 710.00
  Q 753.13 669.79 735.07 630.29
  A 1.63 1.62 -12.7 0 0 733.56 629.34
  L 717.44 629.53
  A 1.04 1.03 11.6 0 0 716.51 630.14
  Q 701.31 664.61 683.52 703.58
  Q 681.48 708.04 679.71 712.61
  A 0.44 0.43 10.5 0 0 680.12 713.20
  L 698.17 713.08
  A 1.00 0.97 -78.0 0 0 699.07 712.48
  L 706.06 696.36
  A 1.83 1.83 0.0 0 1 707.73 695.25
  L 743.39 694.89"
/>
<path stroke="#49706c" vector-effect="non-scaling-stroke" d="
  M 367.72 664.03
  Q 367.73 662.99 368.43 663.75
  Q 390.46 687.22 411.31 712.43
  Q 412.00 713.26 413.08 713.27
  L 425.73 713.28
  Q 426.25 713.28 426.25 712.77
  L 426.56 630.52
  A 0.54 0.54 0.0 0 0 426.02 629.97
  L 408.28 630.02
  A 0.46 0.46 0.0 0 0 407.82 630.47
  L 407.51 678.18
  Q 407.50 679.59 406.58 678.52
  L 365.37 630.39
  A 2.61 2.57 -20.0 0 0 363.40 629.49
  L 348.71 629.49
  A 0.55 0.54 -0.5 0 0 348.16 630.04
  L 348.43 712.98
  A 0.79 0.79 0.0 0 0 349.23 713.77
  L 366.68 713.68
  A 0.86 0.85 -89.7 0 0 367.53 712.83
  L 367.72 664.03"
/>
<path stroke="#497764" vector-effect="non-scaling-stroke" d="
  M 285.12 697.76
  A 0.58 0.58 0.0 0 1 284.54 697.18
  L 284.57 678.33
  A 0.58 0.58 0.0 0 1 285.15 677.75
  L 324.19 677.70
  A 0.58 0.58 0.0 0 0 324.77 677.12
  L 324.78 663.59
  A 0.58 0.58 0.0 0 0 324.20 663.01
  L 285.31 662.98
  A 0.58 0.58 0.0 0 1 284.73 662.41
  L 284.58 646.19
  A 0.58 0.58 0.0 0 1 285.16 645.60
  L 330.72 645.81
  A 0.58 0.58 0.0 0 0 331.30 645.23
  L 331.29 630.33
  A 0.58 0.58 0.0 0 0 330.71 629.75
  L 265.31 629.66
  A 0.58 0.58 0.0 0 0 264.73 630.24
  L 264.74 713.36
  A 0.58 0.58 0.0 0 0 265.32 713.94
  L 331.10 713.67
  A 0.58 0.58 0.0 0 0 331.68 713.09
  L 331.71 698.31
  A 0.58 0.58 0.0 0 0 331.13 697.73
  L 285.12 697.76"
/>
<path stroke="#4b6c71" vector-effect="non-scaling-stroke" d="
  M 466.30 630.45
  A 0.68 0.68 0.0 0 0 465.62 629.77
  L 447.96 629.77
  A 0.68 0.68 0.0 0 0 447.28 630.45
  L 447.28 712.71
  A 0.68 0.68 0.0 0 0 447.96 713.39
  L 465.62 713.39
  A 0.68 0.68 0.0 0 0 466.30 712.71
  L 466.30 630.45"
/>
<path stroke="#4d6580" vector-effect="non-scaling-stroke" d="
  M 597.50 662.17
  Q 597.73 662.27 597.86 662.49
  Q 609.63 682.89 619.41 698.32
  Q 620.42 699.91 622.34 699.89
  Q 625.42 699.86 628.44 699.82
  A 2.13 2.13 0.0 0 0 630.23 698.79
  L 651.76 663.48
  Q 652.96 661.51 652.96 663.81
  L 652.83 712.68
  A 0.60 0.60 0.0 0 0 653.43 713.28
  L 669.76 713.18
  A 0.70 0.69 -0.4 0 0 670.45 712.49
  L 670.78 630.31
  Q 670.79 629.74 670.22 629.74
  Q 662.78 629.79 655.34 629.76
  C 653.03 629.76 652.25 631.66 651.27 633.34
  Q 639.04 654.18 627.26 674.86
  Q 626.26 676.63 624.97 678.24
  A 0.48 0.48 0.0 0 1 624.18 678.17
  Q 611.22 654.22 597.81 631.43
  A 2.89 2.87 74.6 0 0 595.33 630.01
  L 579.73 630.00
  Q 579.47 630.00 579.47 630.27
  L 579.21 712.63
  Q 579.21 713.30 579.88 713.30
  L 596.86 713.35
  A 0.45 0.44 90.0 0 0 597.30 712.90
  L 597.23 662.34
  A 0.19 0.19 0.0 0 1 597.50 662.17"
/>
<path stroke="#5e5082" vector-effect="non-scaling-stroke" d="
  M 61.94 832.04
  Q 67.18 832.05 71.98 832.73
  Q 78.90 833.70 81.41 839.08
  Q 82.56 841.55 82.52 846.76
  Q 82.25 880.71 82.71 914.01
  Q 82.72 915.04 83.75 915.03
  L 84.67 915.02
  Q 85.77 915.00 85.79 913.91
  Q 86.29 881.73 86.39 847.32
  Q 86.41 842.17 85.39 838.77
  C 83.02 830.84 75.38 827.77 67.75 827.97
  Q 47.56 828.50 23.00 828.37
  Q 14.36 828.32 4.27 828.54
  C 3.23 828.57 2.24 828.22 1.22 828.45
  Q 0.37 828.64 0.37 829.51
  L 0.37 831.02
  A 0.76 0.75 -4.7 0 0 1.26 831.77
  Q 2.75 831.51 4.31 831.54
  Q 33.32 832.01 61.94 832.04"
/>
<path stroke="#49706c" vector-effect="non-scaling-stroke" d="
  M 165.10 73.90
  A 9.02 9.02 0.0 0 0 156.12 64.87
  L 68.28 64.53
  A 9.02 9.02 0.0 0 0 59.23 73.58
  L 59.59 161.89
  A 9.02 9.02 0.0 0 0 68.56 170.87
  L 155.95 171.35
  A 9.02 9.02 0.0 0 0 165.02 162.34
  L 165.10 73.90"
/>
<path stroke="#505a7f" vector-effect="non-scaling-stroke" d="
  M 712.47 680.56
  A 0.50 0.50 0.0 0 0 712.94 681.24
  L 737.92 681.11
  A 0.50 0.50 0.0 0 0 738.38 680.42
  L 725.72 649.17
  A 0.50 0.50 0.0 0 0 724.80 649.17
  L 712.47 680.56"
/>
<path stroke="#7b9bcb" vector-effect="non-scaling-stroke" d="
  M 982.62 1024.00
  L 983.49 1023.54
  Q 983.93 1023.31 983.93 1022.80
  Q 983.68 1005.45 984.26 987.10
  Q 984.37 983.48 983.94 980.07
  C 983.82 979.09 984.16 978.05 984.14 976.99
  Q 984.06 969.62 984.52 961.76
  C 984.74 958.07 984.16 954.57 984.49 950.81
  Q 984.58 949.75 984.26 948.78
  Q 983.94 947.81 984.29 946.79
  Q 984.55 946.04 984.29 945.28
  C 983.87 944.11 984.33 942.85 984.30 941.61
  Q 984.06 931.62 983.61 922.17
  C 983.52 920.39 982.84 918.98 982.89 917.16
  Q 982.96 914.50 982.46 911.81
  C 982.01 909.42 982.12 907.11 982.13 904.70
  Q 982.13 904.52 982.20 904.36
  Q 982.24 904.26 982.34 904.21
  Q 982.84 903.92 982.28 903.79
  Q 981.76 903.66 981.75 903.09
  Q 981.75 902.97 981.85 902.92
  Q 981.99 902.85 982.14 902.87
  Q 982.60 902.94 982.19 902.72
  Q 981.75 902.48 981.24 902.58
  Q 980.27 902.76 980.21 902.28"
/>
<path stroke="#8c86ce" vector-effect="non-scaling-stroke" d="
  M 939.88 1024.00
  Q 940.27 1003.02 940.35 982.00
  Q 940.37 976.07 940.23 968.25
  Q 940.06 957.84 940.08 949.41
  Q 940.12 928.93 936.83 908.23
  A 0.96 0.95 78.0 0 1 937.53 907.15
  Q 938.39 906.92 937.68 906.01"
/>
</g>
<path fill="#222433" d="
  M 0.00 0.00
  L 1024.00 0.00
  L 1024.00 902.23
  L 980.21 902.28
  Q 964.13 901.91 952.33 902.62
  Q 945.32 903.03 937.68 906.01
  Q 916.11 914.84 905.41 935.76
  C 900.30 945.77 899.29 955.66 899.27 966.75
  Q 899.21 995.38 899.37 1024.00
  L 0.00 1024.00
  L 0.00 0.00
  Z
  M 146.25 175.52
  C 154.14 175.50 163.27 176.25 167.52 168.37
  Q 169.09 165.44 169.22 159.11
  Q 169.35 152.67 169.31 146.42
  Q 169.08 112.99 169.26 81.16
  Q 169.30 74.10 168.42 70.25
  C 167.43 65.88 162.91 62.14 158.19 61.36
  Q 155.64 60.94 153.01 60.96
  Q 111.77 61.37 68.16 60.99
  Q 60.23 60.92 57.27 67.19
  C 56.09 69.71 56.05 72.90 56.04 75.75
  C 55.98 102.76 55.50 132.90 56.13 162.75
  C 56.32 171.60 62.21 175.49 70.25 175.61
  C 96.17 176.00 121.84 175.57 146.25 175.52
  Z
  M 499.73 266.97
  L 450.34 292.72
  A 1.51 1.51 0.0 0 1 448.54 292.41
  Q 441.59 284.93 432.28 288.24
  C 424.92 290.87 421.69 298.17 423.63 305.76
  Q 407.63 314.14 391.67 322.10
  C 384.04 325.91 375.93 326.44 374.00 336.65
  C 372.58 344.15 377.04 350.90 383.70 353.84
  A 0.97 0.96 12.4 0 1 384.27 354.72
  L 384.33 380.79
  L 384.28 408.92
  A 1.22 1.22 0.0 0 1 383.56 410.02
  C 370.23 415.85 371.62 431.14 382.71 438.05
  A 1.19 1.17 16.3 0 1 383.27 439.05
  L 383.36 482.98
  A 1.69 1.69 0.0 0 0 384.25 484.47
  L 418.71 503.00
  Q 419.70 503.53 419.72 504.65
  C 419.78 507.30 419.46 510.01 420.30 512.58
  C 421.72 516.91 424.72 520.44 429.27 521.57
  Q 435.90 523.22 441.80 518.51
  Q 443.55 517.12 445.35 515.38
  Q 466.26 526.05 486.84 537.43
  Q 491.68 540.10 497.72 542.73
  Q 498.23 542.95 498.24 543.50
  C 498.42 553.07 508.37 560.01 517.48 556.63
  Q 525.21 553.77 526.41 545.07
  A 2.16 2.16 0.0 0 1 527.52 543.47
  Q 554.71 528.72 582.57 515.19
  Q 588.13 522.27 595.89 521.99
  C 604.48 521.67 611.74 512.27 607.83 504.00
  A 0.72 0.72 0.0 0 1 608.12 503.07
  Q 619.47 496.44 632.00 489.98
  Q 634.85 488.51 637.60 486.86
  C 641.75 484.37 641.14 481.74 641.15 477.72
  Q 641.23 450.69 641.22 423.75
  Q 640.93 421.80 642.05 421.32
  Q 645.95 419.67 648.55 416.98
  C 652.78 412.62 653.40 405.58 650.23 400.51
  Q 647.33 395.90 641.05 393.81
  L 641.02 348.39
  A 1.07 1.07 0.0 0 1 641.71 347.39
  Q 650.00 344.26 650.57 335.70
  C 651.06 328.22 645.97 322.98 638.95 321.52
  Q 635.17 320.74 631.68 318.96
  C 622.76 314.41 614.26 309.05 605.00 305.19
  Q 604.42 304.95 604.49 304.34
  Q 604.61 303.25 604.89 302.21
  C 606.10 297.76 603.57 292.47 600.35 289.73
  C 594.04 284.34 584.63 285.94 578.91 291.83
  A 0.77 0.77 0.0 0 1 578.00 291.97
  L 528.83 266.48
  A 0.98 0.97 17.9 0 1 528.32 265.49
  C 529.40 257.33 524.34 250.58 516.21 249.39
  C 509.69 248.43 502.54 252.38 500.78 258.77
  C 500.05 261.45 500.07 264.15 499.73 266.97
  Z
  M 820.6300 284.3167
  A 13.63 13.02 -3.8 0 0 806.1671 272.2286
  A 13.63 13.02 -3.8 0 0 793.4300 286.1233
  A 13.63 13.02 -3.8 0 0 807.8929 298.2114
  A 13.63 13.02 -3.8 0 0 820.6300 284.3167
  Z
  M 230.59 342.72
  A 13.33 13.33 0.0 0 0 217.26 329.39
  A 13.33 13.33 0.0 0 0 203.93 342.72
  A 13.33 13.33 0.0 0 0 217.26 356.05
  A 13.33 13.33 0.0 0 0 230.59 342.72
  Z
  M 59.8471 580.0029
  A 7.76 7.49 -45.0 0 0 49.0638 580.1938
  A 7.76 7.49 -45.0 0 0 48.8729 590.9771
  A 7.76 7.49 -45.0 0 0 59.6562 590.7862
  A 7.76 7.49 -45.0 0 0 59.8471 580.0029
  Z
  M 546.23 684.86
  L 546.29 693.96
  Q 546.29 694.51 545.94 694.94
  Q 544.96 696.14 543.48 696.67
  C 523.86 703.65 500.83 693.41 502.31 670.04
  C 503.18 656.27 512.93 646.22 526.39 644.55
  Q 540.57 642.79 552.17 653.11
  A 0.68 0.68 0.0 0 0 553.18 652.99
  L 562.15 640.31
  Q 563.10 638.95 561.72 638.05
  Q 541.32 624.71 517.08 629.48
  C 498.13 633.21 483.85 649.24 482.76 668.65
  Q 481.84 685.24 490.51 696.46
  C 507.06 717.85 538.61 720.50 560.38 705.27
  C 561.56 704.45 562.52 703.53 562.53 701.97
  Q 562.56 685.27 562.51 667.58
  A 0.47 0.47 0.0 0 0 562.04 667.11
  L 536.14 667.38
  A 0.94 0.94 0.0 0 0 535.21 668.33
  L 535.33 683.29
  A 0.71 0.71 0.0 0 0 536.04 683.99
  L 545.36 684.00
  Q 546.22 684.00 546.23 684.86
  Z
  M 743.39 694.89
  A 1.28 1.28 0.0 0 1 744.59 695.68
  L 751.72 712.41
  A 1.56 1.55 78.0 0 0 753.16 713.35
  L 770.20 713.15
  Q 771.07 713.14 770.80 712.32
  Q 770.39 711.09 769.93 710.00
  Q 753.13 669.79 735.07 630.29
  A 1.63 1.62 -12.7 0 0 733.56 629.34
  L 717.44 629.53
  A 1.04 1.03 11.6 0 0 716.51 630.14
  Q 701.31 664.61 683.52 703.58
  Q 681.48 708.04 679.71 712.61
  A 0.44 0.43 10.5 0 0 680.12 713.20
  L 698.17 713.08
  A 1.00 0.97 -78.0 0 0 699.07 712.48
  L 706.06 696.36
  A 1.83 1.83 0.0 0 1 707.73 695.25
  L 743.39 694.89
  Z
  M 367.72 664.03
  Q 367.73 662.99 368.43 663.75
  Q 390.46 687.22 411.31 712.43
  Q 412.00 713.26 413.08 713.27
  L 425.73 713.28
  Q 426.25 713.28 426.25 712.77
  L 426.56 630.52
  A 0.54 0.54 0.0 0 0 426.02 629.97
  L 408.28 630.02
  A 0.46 0.46 0.0 0 0 407.82 630.47
  L 407.51 678.18
  Q 407.50 679.59 406.58 678.52
  L 365.37 630.39
  A 2.61 2.57 -20.0 0 0 363.40 629.49
  L 348.71 629.49
  A 0.55 0.54 -0.5 0 0 348.16 630.04
  L 348.43 712.98
  A 0.79 0.79 0.0 0 0 349.23 713.77
  L 366.68 713.68
  A 0.86 0.85 -89.7 0 0 367.53 712.83
  L 367.72 664.03
  Z
  M 285.12 697.76
  A 0.58 0.58 0.0 0 1 284.54 697.18
  L 284.57 678.33
  A 0.58 0.58 0.0 0 1 285.15 677.75
  L 324.19 677.70
  A 0.58 0.58 0.0 0 0 324.77 677.12
  L 324.78 663.59
  A 0.58 0.58 0.0 0 0 324.20 663.01
  L 285.31 662.98
  A 0.58 0.58 0.0 0 1 284.73 662.41
  L 284.58 646.19
  A 0.58 0.58 0.0 0 1 285.16 645.60
  L 330.72 645.81
  A 0.58 0.58 0.0 0 0 331.30 645.23
  L 331.29 630.33
  A 0.58 0.58 0.0 0 0 330.71 629.75
  L 265.31 629.66
  A 0.58 0.58 0.0 0 0 264.73 630.24
  L 264.74 713.36
  A 0.58 0.58 0.0 0 0 265.32 713.94
  L 331.10 713.67
  A 0.58 0.58 0.0 0 0 331.68 713.09
  L 331.71 698.31
  A 0.58 0.58 0.0 0 0 331.13 697.73
  L 285.12 697.76
  Z
  M 466.30 630.45
  A 0.68 0.68 0.0 0 0 465.62 629.77
  L 447.96 629.77
  A 0.68 0.68 0.0 0 0 447.28 630.45
  L 447.28 712.71
  A 0.68 0.68 0.0 0 0 447.96 713.39
  L 465.62 713.39
  A 0.68 0.68 0.0 0 0 466.30 712.71
  L 466.30 630.45
  Z
  M 597.50 662.17
  Q 597.73 662.27 597.86 662.49
  Q 609.63 682.89 619.41 698.32
  Q 620.42 699.91 622.34 699.89
  Q 625.42 699.86 628.44 699.82
  A 2.13 2.13 0.0 0 0 630.23 698.79
  L 651.76 663.48
  Q 652.96 661.51 652.96 663.81
  L 652.83 712.68
  A 0.60 0.60 0.0 0 0 653.43 713.28
  L 669.76 713.18
  A 0.70 0.69 -0.4 0 0 670.45 712.49
  L 670.78 630.31
  Q 670.79 629.74 670.22 629.74
  Q 662.78 629.79 655.34 629.76
  C 653.03 629.76 652.25 631.66 651.27 633.34
  Q 639.04 654.18 627.26 674.86
  Q 626.26 676.63 624.97 678.24
  A 0.48 0.48 0.0 0 1 624.18 678.17
  Q 611.22 654.22 597.81 631.43
  A 2.89 2.87 74.6 0 0 595.33 630.01
  L 579.73 630.00
  Q 579.47 630.00 579.47 630.27
  L 579.21 712.63
  Q 579.21 713.30 579.88 713.30
  L 596.86 713.35
  A 0.45 0.44 90.0 0 0 597.30 712.90
  L 597.23 662.34
  A 0.19 0.19 0.0 0 1 597.50 662.17
  Z
  M 61.94 832.04
  Q 67.18 832.05 71.98 832.73
  Q 78.90 833.70 81.41 839.08
  Q 82.56 841.55 82.52 846.76
  Q 82.25 880.71 82.71 914.01
  Q 82.72 915.04 83.75 915.03
  L 84.67 915.02
  Q 85.77 915.00 85.79 913.91
  Q 86.29 881.73 86.39 847.32
  Q 86.41 842.17 85.39 838.77
  C 83.02 830.84 75.38 827.77 67.75 827.97
  Q 47.56 828.50 23.00 828.37
  Q 14.36 828.32 4.27 828.54
  C 3.23 828.57 2.24 828.22 1.22 828.45
  Q 0.37 828.64 0.37 829.51
  L 0.37 831.02
  A 0.76 0.75 -4.7 0 0 1.26 831.77
  Q 2.75 831.51 4.31 831.54
  Q 33.32 832.01 61.94 832.04
  Z"
/>
<path fill="#6fbca5" d="
  M 146.25 175.52
  C 121.84 175.57 96.17 176.00 70.25 175.61
  C 62.21 175.49 56.32 171.60 56.13 162.75
  C 55.50 132.90 55.98 102.76 56.04 75.75
  C 56.05 72.90 56.09 69.71 57.27 67.19
  Q 60.23 60.92 68.16 60.99
  Q 111.77 61.37 153.01 60.96
  Q 155.64 60.94 158.19 61.36
  C 162.91 62.14 167.43 65.88 168.42 70.25
  Q 169.30 74.10 169.26 81.16
  Q 169.08 112.99 169.31 146.42
  Q 169.35 152.67 169.22 159.11
  Q 169.09 165.44 167.52 168.37
  C 163.27 176.25 154.14 175.50 146.25 175.52
  Z
  M 165.10 73.90
  A 9.02 9.02 0.0 0 0 156.12 64.87
  L 68.28 64.53
  A 9.02 9.02 0.0 0 0 59.23 73.58
  L 59.59 161.89
  A 9.02 9.02 0.0 0 0 68.56 170.87
  L 155.95 171.35
  A 9.02 9.02 0.0 0 0 165.02 162.34
  L 165.10 73.90
  Z"
/>
<path fill="#222433" d="
  M 165.10 73.90
  L 165.02 162.34
  A 9.02 9.02 0.0 0 1 155.95 171.35
  L 68.56 170.87
  A 9.02 9.02 0.0 0 1 59.59 161.89
  L 59.23 73.58
  A 9.02 9.02 0.0 0 1 68.28 64.53
  L 156.12 64.87
  A 9.02 9.02 0.0 0 1 165.10 73.90
  Z"
/>
<path fill="#9a7cd1" d="
  M 641.05 393.81
  L 635.59 393.81
  L 635.44 348.31
  Q 635.44 347.64 634.79 347.46
  Q 623.15 344.32 623.19 332.19
  Q 623.19 330.72 621.86 331.32
  L 611.22 336.13
  Q 610.38 336.32 610.11 335.66
  Q 609.94 335.25 609.49 335.22
  Q 608.68 335.15 608.18 334.24
  Q 607.91 333.73 608.41 333.45
  Q 611.56 331.65 610.76 330.19
  L 624.86 323.60
  A 0.49 0.48 70.2 0 0 625.12 323.04
  Q 624.97 322.47 624.50 322.17
  Q 615.35 316.25 602.63 309.55
  A 0.63 0.62 30.8 0 0 601.83 309.75
  C 595.68 318.57 583.56 315.85 578.51 307.82
  A 1.43 1.42 60.2 0 0 576.65 307.31
  L 527.01 333.20
  Q 526.75 331.80 525.82 330.73
  Q 525.50 330.36 525.44 329.87
  L 525.18 327.88
  L 576.22 300.80
  A 2.01 2.01 0.0 0 0 576.19 297.24
  L 526.56 271.68
  Q 525.77 271.27 525.13 271.89
  Q 514.31 282.27 502.25 271.46
  L 499.73 266.97
  C 500.07 264.15 500.05 261.45 500.78 258.77
  C 502.54 252.38 509.69 248.43 516.21 249.39
  C 524.34 250.58 529.40 257.33 528.32 265.49
  A 0.98 0.97 17.9 0 0 528.83 266.48
  L 578.00 291.97
  A 0.77 0.77 0.0 0 0 578.91 291.83
  C 584.63 285.94 594.04 284.34 600.35 289.73
  C 603.57 292.47 606.10 297.76 604.89 302.21
  Q 604.61 303.25 604.49 304.34
  Q 604.42 304.95 605.00 305.19
  C 614.26 309.05 622.76 314.41 631.68 318.96
  Q 635.17 320.74 638.95 321.52
  C 645.97 322.98 651.06 328.22 650.57 335.70
  Q 650.00 344.26 641.71 347.39
  A 1.07 1.07 0.0 0 0 641.02 348.39
  L 641.05 393.81
  Z"
/>
<path fill="#7d90ca" d="
  M 499.73 266.97
  L 502.25 271.46
  Q 476.98 285.57 450.92 298.46
  Q 449.24 299.29 450.20 300.90
  C 451.49 303.06 455.51 304.87 457.65 305.99
  Q 481.99 318.74 500.94 328.73
  A 0.41 0.41 0.0 0 0 501.48 328.58
  C 506.50 320.36 517.66 321.49 523.74 327.73
  Q 524.06 328.05 524.50 328.07
  Q 524.96 328.09 525.18 327.88
  L 525.44 329.87
  Q 525.50 330.36 525.82 330.73
  Q 526.75 331.80 527.01 333.20
  Q 527.17 337.10 526.97 341.49
  Q 526.85 344.25 525.15 346.40
  Q 521.29 351.27 514.78 352.46
  Q 512.55 353.40 509.28 352.05
  Q 504.21 349.30 502.01 347.23
  C 499.05 344.44 498.33 339.55 499.21 335.15
  A 1.51 1.50 19.7 0 0 498.43 333.51
  L 475.47 321.39
  A 0.48 0.48 0.0 0 0 474.77 321.83
  L 475.12 332.03
  L 474.62 331.71
  Q 474.20 331.43 473.71 331.50
  Q 470.54 331.93 469.52 333.82
  L 469.74 319.87
  A 1.86 1.84 -75.6 0 0 468.76 318.20
  L 450.61 308.55
  A 1.17 1.17 0.0 0 0 449.07 308.97
  C 445.40 314.91 438.53 317.57 431.95 314.55
  Q 428.51 312.97 425.74 310.07
  Q 424.35 309.80 424.14 308.25
  Q 423.86 306.29 423.63 305.76
  C 421.69 298.17 424.92 290.87 432.28 288.24
  Q 441.59 284.93 448.54 292.41
  A 1.51 1.51 0.0 0 0 450.34 292.72
  L 499.73 266.97
  Z"
/>
<path fill="#222433" d="
  M 525.18 327.88
  Q 524.96 328.09 524.50 328.07
  Q 524.06 328.05 523.74 327.73
  C 517.66 321.49 506.50 320.36 501.48 328.58
  A 0.41 0.41 0.0 0 1 500.94 328.73
  Q 481.99 318.74 457.65 305.99
  C 455.51 304.87 451.49 303.06 450.20 300.90
  Q 449.24 299.29 450.92 298.46
  Q 476.98 285.57 502.25 271.46
  Q 514.31 282.27 525.13 271.89
  Q 525.77 271.27 526.56 271.68
  L 576.19 297.24
  A 2.01 2.01 0.0 0 1 576.22 300.80
  L 525.18 327.88
  Z"
/>
<ellipse fill="#70ca95" cx="0.00" cy="0.00" transform="translate(807.03,285.22) rotate(-3.8)" rx="13.63" ry="13.02"/>
<path fill="#74b3ae" d="
  M 423.63 305.76
  Q 423.86 306.29 424.14 308.25
  Q 424.35 309.80 425.74 310.07
  L 394.12 326.97
  A 0.33 0.33 0.0 0 0 394.14 327.57
  Q 405.35 332.59 402.16 344.19
  A 0.88 0.87 -67.1 0 0 402.56 345.18
  C 419.61 355.24 437.96 364.76 455.91 374.24
  A 0.50 0.50 0.0 0 0 456.61 373.97
  C 458.74 368.07 463.08 365.68 468.89 364.91
  Q 469.51 364.83 469.51 364.21
  L 469.52 333.82
  Q 470.54 331.93 473.71 331.50
  Q 474.20 331.43 474.62 331.71
  L 475.12 332.03
  L 475.64 363.87
  A 0.78 0.76 -81.5 0 0 476.16 364.59
  C 481.46 366.38 485.95 369.77 487.12 375.54
  C 488.75 383.57 483.83 390.51 476.07 392.72
  A 0.95 0.94 -8.5 0 0 475.38 393.64
  L 475.48 418.49
  A 1.86 1.85 -75.5 0 0 476.43 420.11
  L 508.93 438.57
  A 0.34 0.34 0.0 0 0 509.44 438.27
  L 509.28 352.05
  Q 512.55 353.40 514.78 352.46
  L 514.46 450.28
  Q 514.46 450.83 513.92 450.93
  L 510.87 451.51
  Q 510.25 451.63 510.27 451.00
  C 510.31 449.20 510.73 445.52 508.94 444.53
  Q 480.70 428.96 455.11 414.00
  Q 454.52 413.66 454.34 414.31
  Q 452.99 419.07 449.38 422.26
  C 441.12 429.54 428.09 424.23 425.92 413.58
  Q 424.28 405.53 430.16 400.34
  C 437.18 394.16 447.06 395.71 452.85 402.41
  C 454.35 404.16 454.73 406.52 456.65 407.86
  Q 462.39 411.87 468.94 416.17
  A 0.49 0.48 -53.4 0 0 469.58 416.07
  Q 469.84 415.74 469.84 415.32
  Q 469.80 404.94 469.70 393.72
  A 0.90 0.89 11.3 0 0 469.14 392.89
  C 465.10 391.20 461.55 389.70 458.89 386.11
  C 457.72 384.54 457.23 382.69 456.29 381.03
  Q 456.01 380.54 455.51 380.29
  Q 426.62 365.85 399.45 350.07
  Q 398.85 349.72 398.34 350.20
  C 396.23 352.22 393.42 354.13 390.40 353.97
  Q 389.66 353.93 389.66 354.67
  L 389.60 386.56
  Q 388.89 386.27 388.61 386.70
  Q 388.49 386.88 388.33 386.73
  Q 388.16 386.59 388.25 386.49
  Q 388.61 386.13 388.10 386.09
  Q 387.54 386.03 387.43 385.50
  Q 387.34 385.03 386.87 385.00
  Q 386.46 384.97 386.22 385.18
  Q 385.76 385.59 385.38 385.10
  Q 384.06 383.36 384.33 380.79
  L 384.27 354.72
  A 0.97 0.96 12.4 0 0 383.70 353.84
  C 377.04 350.90 372.58 344.15 374.00 336.65
  C 375.93 326.44 384.04 325.91 391.67 322.10
  Q 407.63 314.14 423.63 305.76
  Z"
/>
<path fill="#222433" d="
  M 610.76 330.19
  Q 593.92 338.36 577.22 346.25
  Q 570.60 349.38 563.89 351.62
  A 0.63 0.63 0.0 0 1 563.15 351.34
  Q 559.50 345.25 552.95 343.15
  C 543.56 340.14 535.45 346.36 535.89 356.19
  C 536.14 361.64 541.82 366.26 546.66 368.45
  L 546.71 396.20
  Q 546.71 396.88 546.08 397.15
  C 537.71 400.84 531.37 408.87 537.23 418.10
  Q 540.50 423.24 546.18 424.96
  A 0.73 0.73 0.0 0 1 546.71 425.66
  L 546.79 495.29
  L 515.98 511.86
  A 0.49 0.49 0.0 0 1 515.26 511.42
  L 515.57 481.45
  Q 515.57 480.96 516.05 480.82
  C 524.49 478.45 528.86 472.95 527.89 463.93
  C 527.00 455.73 517.63 451.17 510.03 452.47
  C 505.39 453.25 500.14 455.57 498.46 460.05
  Q 494.49 470.61 502.74 477.49
  C 504.62 479.05 507.25 479.83 509.58 480.73
  A 0.57 0.56 10.9 0 1 509.95 481.27
  L 509.65 511.05
  A 0.43 0.43 0.0 0 1 508.99 511.41
  L 481.76 493.76
  Q 480.90 493.20 479.99 493.69
  L 476.65 495.50
  A 0.55 0.55 0.0 0 0 476.57 496.42
  Q 477.79 497.37 479.05 498.19
  Q 494.70 508.40 508.86 517.42
  A 1.90 1.89 16.3 0 1 509.74 519.02
  L 509.74 528.03
  A 1.60 1.58 80.9 0 1 508.66 529.54
  Q 502.26 531.69 499.37 537.07
  A 0.51 0.50 27.3 0 1 498.70 537.28
  L 447.36 510.40
  Q 449.19 496.25 435.42 493.45
  Q 431.28 492.60 427.86 494.19
  Q 425.55 495.26 423.38 496.94
  A 2.73 2.72 39.9 0 1 420.45 497.20
  L 389.73 481.14
  A 1.35 1.34 -76.0 0 1 389.01 479.93
  L 389.64 439.22
  A 1.44 1.44 0.0 0 1 390.73 437.85
  Q 395.18 436.73 398.11 433.90
  Q 398.56 433.47 399.09 433.80
  Q 430.04 452.94 460.42 470.62
  A 0.90 0.89 32.5 0 1 460.71 471.91
  C 456.43 478.14 455.64 485.44 461.20 491.25
  Q 466.45 496.72 475.28 494.88
  Q 482.45 493.39 485.90 487.10
  C 489.24 481.01 487.41 473.99 482.29 469.37
  C 477.56 465.09 472.51 465.00 466.91 467.02
  A 2.19 2.17 -39.9 0 1 465.07 466.86
  Q 433.16 448.35 401.93 429.09
  A 1.03 1.02 26.6 0 1 401.51 427.85
  Q 404.64 419.88 398.65 413.77
  C 396.35 411.42 393.32 410.54 390.09 409.67
  Q 389.51 409.51 389.51 408.91
  L 389.60 386.56
  L 389.66 354.67
  Q 389.66 353.93 390.40 353.97
  C 393.42 354.13 396.23 352.22 398.34 350.20
  Q 398.85 349.72 399.45 350.07
  Q 426.62 365.85 455.51 380.29
  Q 456.01 380.54 456.29 381.03
  C 457.23 382.69 457.72 384.54 458.89 386.11
  C 461.55 389.70 465.10 391.20 469.14 392.89
  A 0.90 0.89 11.3 0 1 469.70 393.72
  Q 469.80 404.94 469.84 415.32
  Q 469.84 415.74 469.58 416.07
  A 0.49 0.48 -53.4 0 1 468.94 416.17
  Q 462.39 411.87 456.65 407.86
  C 454.73 406.52 454.35 404.16 452.85 402.41
  C 447.06 395.71 437.18 394.16 430.16 400.34
  Q 424.28 405.53 425.92 413.58
  C 428.09 424.23 441.12 429.54 449.38 422.26
  Q 452.99 419.07 454.34 414.31
  Q 454.52 413.66 455.11 414.00
  Q 480.70 428.96 508.94 444.53
  C 510.73 445.52 510.31 449.20 510.27 451.00
  Q 510.25 451.63 510.87 451.51
  L 513.92 450.93
  Q 514.46 450.83 514.46 450.28
  L 514.78 352.46
  Q 521.29 351.27 525.15 346.40
  Q 526.85 344.25 526.97 341.49
  Q 527.17 337.10 527.01 333.20
  L 576.65 307.31
  A 1.43 1.42 60.2 0 1 578.51 307.82
  C 583.56 315.85 595.68 318.57 601.83 309.75
  A 0.63 0.62 30.8 0 1 602.63 309.55
  Q 615.35 316.25 624.50 322.17
  Q 624.97 322.47 625.12 323.04
  A 0.49 0.48 70.2 0 1 624.86 323.60
  L 610.76 330.19
  Z"
/>
<path fill="#222433" d="
  M 469.52 333.82
  L 469.51 364.21
  Q 469.51 364.83 468.89 364.91
  C 463.08 365.68 458.74 368.07 456.61 373.97
  A 0.50 0.50 0.0 0 1 455.91 374.24
  C 437.96 364.76 419.61 355.24 402.56 345.18
  A 0.88 0.87 -67.1 0 1 402.16 344.19
  Q 405.35 332.59 394.14 327.57
  A 0.33 0.33 0.0 0 1 394.12 326.97
  L 425.74 310.07
  Q 428.51 312.97 431.95 314.55
  C 438.53 317.57 445.40 314.91 449.07 308.97
  A 1.17 1.17 0.0 0 1 450.61 308.55
  L 468.76 318.20
  A 1.86 1.84 -75.6 0 1 469.74 319.87
  L 469.52 333.82
  Z"
/>
<path fill="#222433" d="
  M 509.28 352.05
  L 509.44 438.27
  A 0.34 0.34 0.0 0 1 508.93 438.57
  L 476.43 420.11
  A 1.86 1.85 -75.5 0 1 475.48 418.49
  L 475.38 393.64
  A 0.95 0.94 -8.5 0 1 476.07 392.72
  C 483.83 390.51 488.75 383.57 487.12 375.54
  C 485.95 369.77 481.46 366.38 476.16 364.59
  A 0.78 0.76 -81.5 0 1 475.64 363.87
  L 475.12 332.03
  L 474.77 321.83
  A 0.48 0.48 0.0 0 1 475.47 321.39
  L 498.43 333.51
  A 1.51 1.50 19.7 0 1 499.21 335.15
  C 498.33 339.55 499.05 344.44 502.01 347.23
  Q 504.21 349.30 509.28 352.05
  Z"
/>
<circle fill="#78a6cc" cx="217.26" cy="342.72" r="13.33"/>
<path fill="#7d90ca" d="
  M 610.76 330.19
  Q 611.56 331.65 608.41 333.45
  Q 607.91 333.73 608.18 334.24
  Q 608.68 335.15 609.49 335.22
  Q 609.94 335.25 610.11 335.66
  Q 610.38 336.32 611.22 336.13
  Q 590.70 346.28 570.01 356.06
  Q 567.39 357.30 565.48 357.81
  Q 563.51 358.34 565.29 359.34
  L 630.35 395.90
  Q 628.45 399.11 625.63 399.49
  Q 596.38 382.98 567.34 366.63
  Q 564.60 365.08 561.56 364.94
  Q 559.65 364.85 557.31 366.21
  Q 555.30 367.37 553.26 368.37
  L 546.66 368.45
  C 541.82 366.26 536.14 361.64 535.89 356.19
  C 535.45 346.36 543.56 340.14 552.95 343.15
  Q 559.50 345.25 563.15 351.34
  A 0.63 0.63 0.0 0 0 563.89 351.62
  Q 570.60 349.38 577.22 346.25
  Q 593.92 338.36 610.76 330.19
  Z"
/>
<path fill="#222433" d="
  M 635.59 393.81
  L 630.35 395.90
  L 565.29 359.34
  Q 563.51 358.34 565.48 357.81
  Q 567.39 357.30 570.01 356.06
  Q 590.70 346.28 611.22 336.13
  L 621.86 331.32
  Q 623.19 330.72 623.19 332.19
  Q 623.15 344.32 634.79 347.46
  Q 635.44 347.64 635.44 348.31
  L 635.59 393.81
  Z"
/>
<path fill="#222433" d="
  M 625.63 399.49
  C 619.87 409.05 624.82 419.80 635.25 422.27
  Q 635.95 422.44 635.82 423.78
  L 635.75 480.01
  A 3.01 2.99 76.3 0 1 634.15 482.67
  L 606.47 497.20
  A 0.69 0.69 0.0 0 1 605.72 497.13
  L 600.32 493.03
  A 2.10 2.09 18.9 0 1 599.50 491.37
  L 599.52 452.23
  A 1.31 1.31 0.0 0 1 600.51 450.96
  C 614.11 447.42 613.82 427.93 600.80 424.27
  C 592.02 421.81 582.33 427.36 581.68 437.09
  Q 580.91 448.61 593.00 451.68
  A 0.85 0.85 0.0 0 1 593.65 452.52
  L 593.47 491.11
  Q 593.47 491.89 592.70 492.00
  C 582.17 493.63 578.92 500.01 580.39 510.02
  L 526.29 537.16
  Q 525.62 537.49 525.29 536.83
  Q 522.85 532.00 516.95 530.00
  A 2.48 2.48 0.0 0 1 515.26 527.65
  L 515.28 519.34
  A 1.56 1.54 -14.1 0 1 516.11 517.97
  L 550.45 499.64
  Q 552.56 499.44 552.60 497.00
  Q 553.18 461.46 552.80 426.11
  A 0.92 0.91 82.0 0 1 553.46 425.23
  Q 557.72 424.03 561.00 420.62
  C 567.20 414.16 565.41 403.20 557.47 399.08
  Q 555.79 398.20 554.05 397.59
  A 1.37 1.36 10.2 0 1 553.14 396.29
  L 553.26 368.37
  Q 555.30 367.37 557.31 366.21
  Q 559.65 364.85 561.56 364.94
  Q 564.60 365.08 567.34 366.63
  Q 596.38 382.98 625.63 399.49
  Z"
/>
<path fill="#74b3ae" d="
  M 553.26 368.37
  L 553.14 396.29
  A 1.37 1.36 10.2 0 0 554.05 397.59
  Q 555.79 398.20 557.47 399.08
  C 565.41 403.20 567.20 414.16 561.00 420.62
  Q 557.72 424.03 553.46 425.23
  A 0.92 0.91 82.0 0 0 552.80 426.11
  Q 553.18 461.46 552.60 497.00
  Q 552.56 499.44 550.45 499.64
  L 546.79 495.29
  L 546.71 425.66
  A 0.73 0.73 0.0 0 0 546.18 424.96
  Q 540.50 423.24 537.23 418.10
  C 531.37 408.87 537.71 400.84 546.08 397.15
  Q 546.71 396.88 546.71 396.20
  L 546.66 368.45
  L 553.26 368.37
  Z"
/>
<path fill="#70ca95" d="
  M 384.33 380.79
  Q 384.06 383.36 385.38 385.10
  Q 385.76 385.59 386.22 385.18
  Q 386.46 384.97 386.87 385.00
  Q 387.34 385.03 387.43 385.50
  Q 387.54 386.03 388.10 386.09
  Q 388.61 386.13 388.25 386.49
  Q 388.16 386.59 388.33 386.73
  Q 388.49 386.88 388.61 386.70
  Q 388.89 386.27 389.60 386.56
  L 389.51 408.91
  Q 389.51 409.51 390.09 409.67
  C 393.32 410.54 396.35 411.42 398.65 413.77
  Q 404.64 419.88 401.51 427.85
  A 1.03 1.02 26.6 0 0 401.93 429.09
  Q 433.16 448.35 465.07 466.86
  A 2.19 2.17 -39.9 0 0 466.91 467.02
  C 472.51 465.00 477.56 465.09 482.29 469.37
  C 487.41 473.99 489.24 481.01 485.90 487.10
  Q 482.45 493.39 475.28 494.88
  Q 466.45 496.72 461.20 491.25
  C 455.64 485.44 456.43 478.14 460.71 471.91
  A 0.90 0.89 32.5 0 0 460.42 470.62
  Q 430.04 452.94 399.09 433.80
  Q 398.56 433.47 398.11 433.90
  Q 395.18 436.73 390.73 437.85
  A 1.44 1.44 0.0 0 0 389.64 439.22
  L 389.01 479.93
  A 1.35 1.34 -76.0 0 0 389.73 481.14
  L 420.45 497.20
  A 2.73 2.72 39.9 0 0 423.38 496.94
  Q 425.55 495.26 427.86 494.19
  Q 431.28 492.60 435.42 493.45
  Q 449.19 496.25 447.36 510.40
  L 445.35 515.38
  Q 443.55 517.12 441.80 518.51
  Q 435.90 523.22 429.27 521.57
  C 424.72 520.44 421.72 516.91 420.30 512.58
  C 419.46 510.01 419.78 507.30 419.72 504.65
  Q 419.70 503.53 418.71 503.00
  L 384.25 484.47
  A 1.69 1.69 0.0 0 1 383.36 482.98
  L 383.27 439.05
  A 1.19 1.17 16.3 0 0 382.71 438.05
  C 371.62 431.14 370.23 415.85 383.56 410.02
  A 1.22 1.22 0.0 0 0 384.28 408.92
  L 384.33 380.79
  Z"
/>
<path fill="#78a6cc" d="
  M 635.59 393.81
  L 641.05 393.81
  Q 647.33 395.90 650.23 400.51
  C 653.40 405.58 652.78 412.62 648.55 416.98
  Q 645.95 419.67 642.05 421.32
  Q 640.93 421.80 641.22 423.75
  L 638.80 424.40
  Q 638.36 424.52 637.99 424.25
  Q 637.23 423.70 635.82 423.78
  Q 635.95 422.44 635.25 422.27
  C 624.82 419.80 619.87 409.05 625.63 399.49
  Q 628.45 399.11 630.35 395.90
  L 635.59 393.81
  Z"
/>
<path fill="#6fbca5" d="
  M 635.82 423.78
  Q 637.23 423.70 637.99 424.25
  Q 638.36 424.52 638.80 424.40
  L 641.22 423.75
  Q 641.23 450.69 641.15 477.72
  C 641.14 481.74 641.75 484.37 637.60 486.86
  Q 634.85 488.51 632.00 489.98
  Q 619.47 496.44 608.12 503.07
  A 0.72 0.72 0.0 0 0 607.83 504.00
  C 611.74 512.27 604.48 521.67 595.89 521.99
  Q 588.13 522.27 582.57 515.19
  L 580.39 510.02
  C 578.92 500.01 582.17 493.63 592.70 492.00
  Q 593.47 491.89 593.47 491.11
  L 593.65 452.52
  A 0.85 0.85 0.0 0 0 593.00 451.68
  Q 580.91 448.61 581.68 437.09
  C 582.33 427.36 592.02 421.81 600.80 424.27
  C 613.82 427.93 614.11 447.42 600.51 450.96
  A 1.31 1.31 0.0 0 0 599.52 452.23
  L 599.50 491.37
  A 2.10 2.09 18.9 0 0 600.32 493.03
  L 605.72 497.13
  A 0.69 0.69 0.0 0 0 606.47 497.20
  L 634.15 482.67
  A 3.01 2.99 76.3 0 0 635.75 480.01
  L 635.82 423.78
  Z"
/>
<path fill="#a16a9c" d="
  M 546.79 495.29
  L 550.45 499.64
  L 516.11 517.97
  A 1.56 1.54 -14.1 0 0 515.28 519.34
  L 515.26 527.65
  A 2.48 2.48 0.0 0 0 516.95 530.00
  Q 522.85 532.00 525.29 536.83
  Q 525.62 537.49 526.29 537.16
  L 580.39 510.02
  L 582.57 515.19
  Q 554.71 528.72 527.52 543.47
  A 2.16 2.16 0.0 0 0 526.41 545.07
  Q 525.21 553.77 517.48 556.63
  C 508.37 560.01 498.42 553.07 498.24 543.50
  Q 498.23 542.95 497.72 542.73
  Q 491.68 540.10 486.84 537.43
  Q 466.26 526.05 445.35 515.38
  L 447.36 510.40
  L 498.70 537.28
  A 0.51 0.50 27.3 0 0 499.37 537.07
  Q 502.26 531.69 508.66 529.54
  A 1.60 1.58 80.9 0 0 509.74 528.03
  L 509.74 519.02
  A 1.90 1.89 16.3 0 0 508.86 517.42
  Q 494.70 508.40 479.05 498.19
  Q 477.79 497.37 476.57 496.42
  A 0.55 0.55 0.0 0 1 476.65 495.50
  L 479.99 493.69
  Q 480.90 493.20 481.76 493.76
  L 508.99 511.41
  A 0.43 0.43 0.0 0 0 509.65 511.05
  L 509.95 481.27
  A 0.57 0.56 10.9 0 0 509.58 480.73
  C 507.25 479.83 504.62 479.05 502.74 477.49
  Q 494.49 470.61 498.46 460.05
  C 500.14 455.57 505.39 453.25 510.03 452.47
  C 517.63 451.17 527.00 455.73 527.89 463.93
  C 528.86 472.95 524.49 478.45 516.05 480.82
  Q 515.57 480.96 515.57 481.45
  L 515.26 511.42
  A 0.49 0.49 0.0 0 0 515.98 511.86
  L 546.79 495.29
  Z"
/>
<ellipse fill="#9a7cd1" cx="0.00" cy="0.00" transform="translate(54.36,585.49) rotate(-45.0)" rx="7.76" ry="7.49"/>
<path fill="#74b3ae" d="
  M 545.36 684.00
  L 536.04 683.99
  A 0.71 0.71 0.0 0 1 535.33 683.29
  L 535.21 668.33
  A 0.94 0.94 0.0 0 1 536.14 667.38
  L 562.04 667.11
  A 0.47 0.47 0.0 0 1 562.51 667.58
  Q 562.56 685.27 562.53 701.97
  C 562.52 703.53 561.56 704.45 560.38 705.27
  C 538.61 720.50 507.06 717.85 490.51 696.46
  Q 481.84 685.24 482.76 668.65
  C 483.85 649.24 498.13 633.21 517.08 629.48
  Q 541.32 624.71 561.72 638.05
  Q 563.10 638.95 562.15 640.31
  L 553.18 652.99
  A 0.68 0.68 0.0 0 1 552.17 653.11
  Q 540.57 642.79 526.39 644.55
  C 512.93 646.22 503.18 656.27 502.31 670.04
  C 500.83 693.41 523.86 703.65 543.48 696.67
  Q 544.96 696.14 545.94 694.94
  Q 546.29 694.51 546.29 693.96
  L 546.23 684.86
  Q 546.22 684.00 545.36 684.00
  Z"
/>
<path fill="#7d90ca" d="
  M 743.39 694.89
  L 707.73 695.25
  A 1.83 1.83 0.0 0 0 706.06 696.36
  L 699.07 712.48
  A 1.00 0.97 -78.0 0 1 698.17 713.08
  L 680.12 713.20
  A 0.44 0.43 10.5 0 1 679.71 712.61
  Q 681.48 708.04 683.52 703.58
  Q 701.31 664.61 716.51 630.14
  A 1.04 1.03 11.6 0 1 717.44 629.53
  L 733.56 629.34
  A 1.63 1.62 -12.7 0 1 735.07 630.29
  Q 753.13 669.79 769.93 710.00
  Q 770.39 711.09 770.80 712.32
  Q 771.07 713.14 770.20 713.15
  L 753.16 713.35
  A 1.56 1.55 78.0 0 1 751.72 712.41
  L 744.59 695.68
  A 1.28 1.28 0.0 0 0 743.39 694.89
  Z
  M 712.47 680.56
  A 0.50 0.50 0.0 0 0 712.94 681.24
  L 737.92 681.11
  A 0.50 0.50 0.0 0 0 738.38 680.42
  L 725.72 649.17
  A 0.50 0.50 0.0 0 0 724.80 649.17
  L 712.47 680.56
  Z"
/>
<path fill="#6fbca5" d="
  M 367.72 664.03
  L 367.53 712.83
  A 0.86 0.85 -89.7 0 1 366.68 713.68
  L 349.23 713.77
  A 0.79 0.79 0.0 0 1 348.43 712.98
  L 348.16 630.04
  A 0.55 0.54 -0.5 0 1 348.71 629.49
  L 363.40 629.49
  A 2.61 2.57 -20.0 0 1 365.37 630.39
  L 406.58 678.52
  Q 407.50 679.59 407.51 678.18
  L 407.82 630.47
  A 0.46 0.46 0.0 0 1 408.28 630.02
  L 426.02 629.97
  A 0.54 0.54 0.0 0 1 426.56 630.52
  L 426.25 712.77
  Q 426.25 713.28 425.73 713.28
  L 413.08 713.27
  Q 412.00 713.26 411.31 712.43
  Q 390.46 687.22 368.43 663.75
  Q 367.73 662.99 367.72 664.03
  Z"
/>
<path fill="#70ca95" d="
  M 285.12 697.76
  L 331.13 697.73
  A 0.58 0.58 0.0 0 1 331.71 698.31
  L 331.68 713.09
  A 0.58 0.58 0.0 0 1 331.10 713.67
  L 265.32 713.94
  A 0.58 0.58 0.0 0 1 264.74 713.36
  L 264.73 630.24
  A 0.58 0.58 0.0 0 1 265.31 629.66
  L 330.71 629.75
  A 0.58 0.58 0.0 0 1 331.29 630.33
  L 331.30 645.23
  A 0.58 0.58 0.0 0 1 330.72 645.81
  L 285.16 645.60
  A 0.58 0.58 0.0 0 0 284.58 646.19
  L 284.73 662.41
  A 0.58 0.58 0.0 0 0 285.31 662.98
  L 324.20 663.01
  A 0.58 0.58 0.0 0 1 324.78 663.59
  L 324.77 677.12
  A 0.58 0.58 0.0 0 1 324.19 677.70
  L 285.15 677.75
  A 0.58 0.58 0.0 0 0 284.57 678.33
  L 284.54 697.18
  A 0.58 0.58 0.0 0 0 285.12 697.76
  Z"
/>
<rect fill="#74b3ae" x="447.28" y="629.77" width="19.02" height="83.62" rx="0.68"/>
<path fill="#78a6cc" d="
  M 597.50 662.17
  A 0.19 0.19 0.0 0 0 597.23 662.34
  L 597.30 712.90
  A 0.45 0.44 90.0 0 1 596.86 713.35
  L 579.88 713.30
  Q 579.21 713.30 579.21 712.63
  L 579.47 630.27
  Q 579.47 630.00 579.73 630.00
  L 595.33 630.01
  A 2.89 2.87 74.6 0 1 597.81 631.43
  Q 611.22 654.22 624.18 678.17
  A 0.48 0.48 0.0 0 0 624.97 678.24
  Q 626.26 676.63 627.26 674.86
  Q 639.04 654.18 651.27 633.34
  C 652.25 631.66 653.03 629.76 655.34 629.76
  Q 662.78 629.79 670.22 629.74
  Q 670.79 629.74 670.78 630.31
  L 670.45 712.49
  A 0.70 0.69 -0.4 0 1 669.76 713.18
  L 653.43 713.28
  A 0.60 0.60 0.0 0 1 652.83 712.68
  L 652.96 663.81
  Q 652.96 661.51 651.76 663.48
  L 630.23 698.79
  A 2.13 2.13 0.0 0 1 628.44 699.82
  Q 625.42 699.86 622.34 699.89
  Q 620.42 699.91 619.41 698.32
  Q 609.63 682.89 597.86 662.49
  Q 597.73 662.27 597.50 662.17
  Z"
/>
<path fill="#222433" d="
  M 712.47 680.56
  L 724.80 649.17
  A 0.50 0.50 0.0 0 1 725.72 649.17
  L 738.38 680.42
  A 0.50 0.50 0.0 0 1 737.92 681.11
  L 712.94 681.24
  A 0.50 0.50 0.0 0 1 712.47 680.56
  Z"
/>
<path fill="#9a7cd1" d="
  M 61.94 832.04
  Q 33.32 832.01 4.31 831.54
  Q 2.75 831.51 1.26 831.77
  A 0.76 0.75 -4.7 0 1 0.37 831.02
  L 0.37 829.51
  Q 0.37 828.64 1.22 828.45
  C 2.24 828.22 3.23 828.57 4.27 828.54
  Q 14.36 828.32 23.00 828.37
  Q 47.56 828.50 67.75 827.97
  C 75.38 827.77 83.02 830.84 85.39 838.77
  Q 86.41 842.17 86.39 847.32
  Q 86.29 881.73 85.79 913.91
  Q 85.77 915.00 84.67 915.02
  L 83.75 915.03
  Q 82.72 915.04 82.71 914.01
  Q 82.25 880.71 82.52 846.76
  Q 82.56 841.55 81.41 839.08
  Q 78.90 833.70 71.98 832.73
  Q 67.18 832.05 61.94 832.04
  Z"
/>
<path fill="#78a6cc" d="
  M 1024.00 902.23
  L 1024.00 1024.00
  L 982.62 1024.00
  L 983.49 1023.54
  Q 983.93 1023.31 983.93 1022.80
  Q 983.68 1005.45 984.26 987.10
  Q 984.37 983.48 983.94 980.07
  C 983.82 979.09 984.16 978.05 984.14 976.99
  Q 984.06 969.62 984.52 961.76
  C 984.74 958.07 984.16 954.57 984.49 950.81
  Q 984.58 949.75 984.26 948.78
  Q 983.94 947.81 984.29 946.79
  Q 984.55 946.04 984.29 945.28
  C 983.87 944.11 984.33 942.85 984.30 941.61
  Q 984.06 931.62 983.61 922.17
  C 983.52 920.39 982.84 918.98 982.89 917.16
  Q 982.96 914.50 982.46 911.81
  C 982.01 909.42 982.12 907.11 982.13 904.70
  Q 982.13 904.52 982.20 904.36
  Q 982.24 904.26 982.34 904.21
  Q 982.84 903.92 982.28 903.79
  Q 981.76 903.66 981.75 903.09
  Q 981.75 902.97 981.85 902.92
  Q 981.99 902.85 982.14 902.87
  Q 982.60 902.94 982.19 902.72
  Q 981.75 902.48 981.24 902.58
  Q 980.27 902.76 980.21 902.28
  L 1024.00 902.23
  Z"
/>
<path fill="#7d90ca" d="
  M 980.21 902.28
  Q 980.27 902.76 981.24 902.58
  Q 981.75 902.48 982.19 902.72
  Q 982.60 902.94 982.14 902.87
  Q 981.99 902.85 981.85 902.92
  Q 981.75 902.97 981.75 903.09
  Q 981.76 903.66 982.28 903.79
  Q 982.84 903.92 982.34 904.21
  Q 982.24 904.26 982.20 904.36
  Q 982.13 904.52 982.13 904.70
  C 982.12 907.11 982.01 909.42 982.46 911.81
  Q 982.96 914.50 982.89 917.16
  C 982.84 918.98 983.52 920.39 983.61 922.17
  Q 984.06 931.62 984.30 941.61
  C 984.33 942.85 983.87 944.11 984.29 945.28
  Q 984.55 946.04 984.29 946.79
  Q 983.94 947.81 984.26 948.78
  Q 984.58 949.75 984.49 950.81
  C 984.16 954.57 984.74 958.07 984.52 961.76
  Q 984.06 969.62 984.14 976.99
  C 984.16 978.05 983.82 979.09 983.94 980.07
  Q 984.37 983.48 984.26 987.10
  Q 983.68 1005.45 983.93 1022.80
  Q 983.93 1023.31 983.49 1023.54
  L 982.62 1024.00
  L 939.88 1024.00
  Q 940.27 1003.02 940.35 982.00
  Q 940.37 976.07 940.23 968.25
  Q 940.06 957.84 940.08 949.41
  Q 940.12 928.93 936.83 908.23
  A 0.96 0.95 78.0 0 1 937.53 907.15
  Q 938.39 906.92 937.68 906.01
  Q 945.32 903.03 952.33 902.62
  Q 964.13 901.91 980.21 902.28
  Z"
/>
<path fill="#9a7cd1" d="
  M 937.68 906.01
  Q 938.39 906.92 937.53 907.15
  A 0.96 0.95 78.0 0 0 936.83 908.23
  Q 940.12 928.93 940.08 949.41
  Q 940.06 957.84 940.23 968.25
  Q 940.37 976.07 940.35 982.00
  Q 940.27 1003.02 939.88 1024.00
  L 899.37 1024.00
  Q 899.21 995.38 899.27 966.75
  C 899.29 955.66 900.30 945.77 905.41 935.76
  Q 916.11 914.84 937.68 906.01
  Z"
/>
</svg>
